<svg width="92" height="60" viewBox="0 0 92 60" fill="none" xmlns="http://www.w3.org/2000/svg">
<path d="M27.4444 21.0943C27.9913 20.6648 28.459 20.4858 28.8476 20.5574C29.2362 20.629 29.4305 21.0084 29.4305 21.6957C29.4305 21.8389 29.4017 21.9892 29.3441 22.1467C29.2866 22.3042 29.2218 22.4474 29.1499 22.5762C29.0779 22.7051 28.9699 22.8411 28.826 22.9843C28.6821 23.1275 28.5526 23.2563 28.4374 23.3709C28.3223 23.4854 28.1784 23.6071 28.0057 23.736C27.833 23.8648 27.689 23.9651 27.5739 24.0366C27.4588 24.1082 27.3148 24.2013 27.1421 24.3158C26.9694 24.4304 26.8399 24.5163 26.7535 24.5736C26.2066 24.9458 25.6309 25.2608 25.0265 25.5186C24.9689 25.5472 24.6235 25.719 23.9902 26.034L23.7743 26.2917C22.9972 27.0362 21.8746 27.4944 20.4066 27.6662C19.4855 27.7808 18.773 27.7879 18.2693 27.6877C17.7656 27.5875 17.0676 27.3369 16.1752 26.936C14.8512 26.306 13.9732 25.7906 13.5415 25.3897C13.2536 25.1606 13.0089 25.0604 12.8075 25.089C12.606 25.1176 12.2318 25.3467 11.6849 25.7763C9.92901 27.0362 7.83493 27.745 5.40264 27.9025C2.97035 28.06 1.38001 27.5803 0.631614 26.4635C0.171062 25.7476 -0.0376254 24.3588 0.0055513 22.297C0.048728 20.2353 0.314985 18.7605 0.804321 17.8728C1.23609 17.0996 1.56711 16.5269 1.79739 16.1547C2.05645 15.7824 2.30111 15.4388 2.53139 15.1238C2.76167 14.7801 3.15026 14.279 3.69716 13.6204C5.51059 11.3868 6.93542 9.85479 7.97166 9.02435C8.77763 8.39437 9.72751 7.85745 10.8213 7.41359C11.9151 6.96974 13.0593 6.67622 14.2539 6.53304C15.4484 6.38987 16.5063 6.54736 17.4274 7.00553C18.55 7.57825 19.2408 8.55902 19.4998 9.94786C19.7589 11.3367 19.7301 12.6826 19.4135 13.9855C19.0969 15.2884 18.6507 16.5126 18.075 17.658C17.5857 18.7462 17.2187 19.9346 16.974 21.2232C16.7293 22.5118 16.7365 23.3566 16.9956 23.7575C17.5425 24.8456 19.3415 24.9172 22.3927 23.9722C22.5078 23.9436 22.623 23.9293 22.7381 23.9293C22.9108 23.872 23.0403 23.8147 23.1267 23.7575C24.9689 22.8125 26.4081 21.9248 27.4444 21.0943ZM14.405 13.019C14.7216 12.8472 14.8943 12.704 14.9231 12.5895C14.9519 12.475 14.8799 12.3318 14.7072 12.16C14.3618 11.7877 13.8725 11.5443 13.2392 11.4298C12.606 11.3152 11.9871 11.3439 11.3826 11.5157C10.7781 11.6588 9.86424 12.2316 8.6409 13.2338C7.41756 14.2361 6.59 15.0951 6.15824 15.811C5.58255 16.6415 5.09321 17.386 4.69023 18.0446C4.20089 18.7319 3.86987 19.7341 3.69716 21.0514C3.52446 22.3686 3.59642 23.2277 3.91305 23.6286C4.20089 23.9722 4.83415 24.144 5.81282 24.144C6.7915 24.144 7.7126 23.9865 8.57613 23.6715C9.41088 23.2706 10.0298 22.6693 10.4327 21.8675C11.1236 20.5216 11.6849 19.4335 12.1166 18.603C12.865 17.3144 13.2392 16.441 13.2392 15.9828C13.2392 15.6965 13.3616 15.403 13.6062 15.1023C13.8509 14.8016 13.9157 14.4795 13.8005 14.1358C13.6566 13.6777 13.8581 13.3054 14.405 13.019Z" fill="#C6CFFF"/>
<path d="M25.0265 20.4071C25.487 19.6339 26.3793 17.8656 27.7034 15.1023C29.0275 12.3389 30.1645 10.3989 31.1144 9.28208C31.2583 9.08163 31.4166 8.89549 31.5893 8.72368C31.9347 8.35141 32.4097 8.07222 33.0142 7.88608C33.6186 7.69995 34.1655 7.72143 34.6549 7.95051C34.8276 8.06506 34.9499 8.36573 35.0219 8.85254C35.0938 9.33935 35.2018 9.59707 35.3457 9.6257C35.5472 9.65434 36.0365 9.39662 36.8137 8.85254C38.1378 7.9362 40.2247 7.17735 43.0743 6.576C44.2257 6.28964 44.9741 6.1751 45.3195 6.23237C45.665 6.28964 46.0967 6.54736 46.6148 7.00553C47.2769 7.66416 47.6223 8.46596 47.6511 9.41094C47.6799 10.3559 47.3632 11.2436 46.7012 12.0741C46.2119 12.79 45.5786 14.2074 44.8014 16.3265C44.0242 18.4455 43.6356 19.9059 43.6356 20.7077C43.6356 21.2805 43.8299 21.9033 44.2185 22.5762C44.6071 23.2492 45.0821 23.8076 45.6434 24.2514C46.2047 24.6953 46.7156 24.9172 47.1761 24.9172C47.867 24.9172 49.3206 24.3445 51.537 23.1991C53.7534 22.0536 55.4949 20.9655 56.7614 19.9346C57.7113 19.2187 58.3877 18.8822 58.7907 18.9252C59.1937 18.9681 59.3952 19.3905 59.3952 20.1923C59.3952 20.5359 59.244 20.9297 58.9418 21.3735C58.6396 21.8174 58.2438 22.2827 57.7544 22.7695C57.2363 23.2277 56.6318 23.693 55.941 24.1655C55.2502 24.638 54.545 25.0174 53.8254 25.3038C51.9256 26.1915 50.5583 26.8358 49.7236 27.2367C48.2843 27.8953 47.0106 28.0814 45.9024 27.7951C44.7942 27.5087 43.4917 26.621 41.9949 25.132C40.786 23.9293 40.0736 23.106 39.8577 22.6621C39.6418 22.2183 39.5339 21.3664 39.5339 20.1064C39.5339 18.2737 39.8649 16.3694 40.5269 14.3936C41.1026 12.4177 41.3329 11.3439 41.2178 11.172C41.045 11.0002 39.8793 11.9237 37.7204 13.9425C35.5616 15.9614 33.4459 18.0947 31.3735 20.3426C29.301 22.5905 28.2647 23.8863 28.2647 24.2299C28.2647 24.5163 28.0848 24.8313 27.725 25.1749C27.3652 25.5186 26.9262 25.7978 26.4081 26.0125C25.89 26.2273 25.4295 26.2917 25.0265 26.2058C24.3644 26.1199 23.9039 25.6045 23.6448 24.6595C23.4433 24.0295 23.4145 23.4711 23.5585 22.9843C23.7024 22.4975 24.1917 21.6384 25.0265 20.4071Z" fill="#C6CFFF"/>
<path d="M89.6253 19.7628C90.2298 19.2187 90.7695 18.9968 91.2444 19.097C91.7194 19.1972 91.9712 19.6482 92 20.45C92 20.6505 91.964 20.8509 91.8921 21.0514C91.8201 21.2518 91.7409 21.4308 91.6546 21.5883C91.5682 21.7458 91.4387 21.9104 91.266 22.0823C91.0933 22.2541 90.935 22.4044 90.7911 22.5333C90.6471 22.6621 90.4744 22.7982 90.2729 22.9413C90.0714 23.0845 89.8987 23.2062 89.7548 23.3064C89.6109 23.4067 89.4382 23.5212 89.2367 23.6501C89.0352 23.7789 88.8769 23.8863 88.7617 23.9722C88.0421 24.459 87.1642 24.9959 86.128 25.583C85.0917 26.17 84.0699 26.7499 83.0624 27.3226C82.055 27.8953 81.177 28.4537 80.4286 28.9978C78.9318 30.1146 77.2839 31.5679 75.4849 33.3576C73.6859 35.1473 71.8796 36.9371 70.0662 38.7268C68.2528 40.5165 66.5545 41.9841 64.9714 43.1295C63.8488 43.96 62.7837 44.1962 61.7763 43.8383C60.7688 43.4803 60.1212 42.5855 59.8333 41.1537C59.7182 40.4664 59.8333 39.5501 60.1787 38.4046C60.6105 36.9729 61.3445 35.6699 62.3808 34.4959C63.1579 33.5795 64.4532 32.6345 66.2667 31.6609C66.6409 31.4605 67.0582 31.1956 67.5188 30.8663C67.9793 30.537 68.4327 30.222 68.8789 29.9213C69.325 29.6206 69.7496 29.3701 70.1526 29.1696C71.4191 28.5683 72.3762 27.9383 73.0238 27.2796C73.6715 26.621 74.1968 25.6617 74.5998 24.4018C76.039 19.6769 75.8663 17.4289 74.0816 17.658C73.3333 17.7726 72.4122 18.2737 71.3183 19.1614C70.2533 19.9918 69.5193 20.5359 69.1163 20.7936C68.3679 21.1945 67.7491 20.808 67.2597 19.6339C66.684 18.2307 66.7272 17.0567 67.3893 16.1117C67.4468 16.0258 67.49 15.9685 67.5188 15.9399C68.1808 15.1667 68.6558 14.4222 68.9436 13.7063C69.3178 12.8472 69.7928 12.3318 70.3685 12.16C71.1744 11.9595 72.038 10.8928 72.9591 8.95992C73.8802 7.02701 74.0816 5.88874 73.5635 5.54511C73.103 5.31602 71.9156 6.30396 70.0014 8.50891C68.0873 10.7139 66.1227 13.1407 64.1078 15.7896C62.0929 18.4384 60.9847 19.863 60.7832 20.0634C59.5167 21.3234 58.3941 21.7673 57.4154 21.395C57.2715 20.5646 57.6889 19.4478 58.6676 18.0446C58.9554 17.6437 60.15 15.8468 62.2512 12.6539C64.3525 9.46105 66.0652 7.13439 67.3893 5.67397C69.2315 3.72674 70.6563 2.44529 71.6638 1.82962C72.6712 1.21395 74.2831 0.691349 76.4995 0.261812C78.716 -0.19636 80.1696 -0.0531801 80.8604 0.69135C81.6664 1.63633 81.9614 2.96073 81.7455 4.66456C81.5296 6.36839 80.8028 8.15096 79.5651 10.0123C78.9606 10.9 78.7016 11.5228 78.7879 11.8808C78.8743 12.2387 79.4068 12.6468 80.3855 13.1049C80.5294 13.1909 80.6589 13.2839 80.7741 13.3841C80.8892 13.4844 80.9899 13.5989 81.0763 13.7278C81.1626 13.8566 81.2346 13.9712 81.2922 14.0714C81.3497 14.1716 81.4073 14.3148 81.4649 14.5009C81.5224 14.6871 81.5584 14.8159 81.5728 14.8875C81.5872 14.9591 81.6232 15.1095 81.6808 15.3385C81.7383 15.5676 81.7671 15.7108 81.7671 15.7681C81.7959 15.8826 81.983 16.305 82.3284 17.0352C82.6738 17.7654 82.7746 18.3596 82.6306 18.8178C82.5155 19.1614 82.2277 19.6196 81.7671 20.1923C81.3066 20.7364 81.0331 21.1946 80.9468 21.5668C80.8028 21.8245 80.7669 22.0393 80.8388 22.2111C80.9108 22.3829 80.9612 22.5261 80.9899 22.6407C81.0187 22.7552 81.1195 22.8483 81.2922 22.9199C81.4649 22.9914 81.6088 23.0416 81.7239 23.0702C81.8391 23.0988 82.0118 23.1131 82.2421 23.1131C82.4723 23.1131 82.6594 23.106 82.8034 23.0917C82.9473 23.0774 83.1272 23.0559 83.3431 23.0272C83.5589 22.9986 83.7245 22.9843 83.8396 22.9843C84.0987 22.9557 84.3721 22.9055 84.66 22.8339C84.9478 22.7624 85.2572 22.6407 85.5882 22.4688C85.9193 22.297 86.1999 22.1539 86.4302 22.0393C86.6605 21.9248 86.9627 21.7315 87.3369 21.4594C87.7111 21.1874 87.9702 21.0013 88.1141 20.901C88.258 20.8008 88.5315 20.5932 88.9345 20.2782C89.3374 19.9632 89.5677 19.7914 89.6253 19.7628Z" fill="#C6CFFF"/>
<path d="M23.7403 31C24.7258 31 25.3779 31.3224 25.6968 31.9671C26.2475 32.817 26.4504 33.916 26.3054 35.264C26.1605 36.6121 25.7402 37.6085 25.0446 38.2533C24.4649 38.8101 24.0374 39.1105 23.762 39.1544C23.4867 39.1984 22.9722 39.0006 22.2186 38.561C19.8129 37.3887 19.3636 35.5571 20.8708 33.0661C21.2186 32.5386 21.523 32.1283 21.7838 31.8352C22.0447 31.5422 22.3273 31.3297 22.6316 31.1978C22.936 31.0659 23.3055 31 23.7403 31ZM37.7833 31.8352C38.5659 31.5715 39.3268 31.7546 40.0659 32.3847C40.805 33.0148 41.247 33.8134 41.3919 34.7805C41.4499 34.9856 41.4934 35.2787 41.5223 35.6597C41.5803 36.1872 41.6238 36.4949 41.6528 36.5828C41.6818 36.8466 41.6962 37.0077 41.6962 37.0664C41.6962 37.3301 41.5586 37.5939 41.2832 37.8576C41.0079 38.1214 40.6528 38.3558 40.218 38.561C39.7833 38.7661 39.3702 38.8687 38.9789 38.8687C38.5876 38.8687 38.0732 38.6342 37.4355 38.1653C36.7978 37.6964 36.2327 37.1543 35.7399 36.5388C35.2472 35.9234 35.0008 35.4106 35.0008 35.0003C35.0008 34.3555 35.2689 33.7548 35.8051 33.198C36.3413 32.6411 37.0007 32.1869 37.7833 31.8352Z" fill="#C6CFFF"/>
<path d="M53.348 50.9406C53.8118 50.6182 54.2538 50.1933 54.6741 49.6658C55.0944 49.1383 55.5581 48.4642 56.0653 47.6437C56.5726 46.8231 56.9856 46.2077 57.3044 45.7974C58.8986 46.7352 59.7826 47.4971 59.9565 48.0833C60.1304 48.6694 59.7826 49.5779 58.9131 50.8087C57.6378 52.5671 56.2465 53.9665 54.7393 55.0068C53.2321 56.0472 51.464 56.6992 49.4351 56.963C48.4496 57.0802 47.0656 57.4832 45.2831 58.1719C43.5005 58.8606 42.4064 59.2635 42.0006 59.3807C40.2035 59.9083 38.8558 60.0987 37.9572 59.9522C32.711 59.1023 28.6097 56.9923 25.6533 53.6221C25.1895 53.1239 24.4432 52.2594 23.4142 51.0285C22.3853 49.7977 21.5809 48.8599 21.0013 48.2151C20.2766 47.4532 19.9506 46.7059 20.023 45.9732C20.0955 45.2406 20.61 44.4933 21.5665 43.7313C22.1461 44.2002 23.0302 44.8889 24.2185 45.7974C25.4069 46.7059 26.4576 47.5338 27.3706 48.2811C28.2836 49.0284 29.1314 49.7537 29.914 50.4571C32.1458 52.5085 34.6602 53.8492 37.4572 54.4793C40.2543 55.1094 42.9861 55.1021 45.6526 54.4573C48.3192 53.8126 50.8844 52.6404 53.348 50.9406Z" fill="#C6CFFF"/>
</svg>
